# xmcd
#
# Track frame offsets: 
#        183
#        20378
#        62183
#
# Disc length: 1040 seconds
#
# Revision: 1
# Processed by: cddbd v1.5.2PL0 Copyright (c) Steve Scherf et al.
# Submitted via: ExactAudioCopyFreeDBPlugin 1.0
#
DISCID=1f040e03
DTITLE=Def Leppard - Rocket
DYEAR=1987
DGENRE=Heavy Metal
TTITLE0=Rocket
TTITLE1=Rock Of Ages (Live)
TTITLE2=Release Me (Stumpus Maximus And The Good Ol' Boys)
EXTD=
EXTT0=
EXTT1=
EXTT2=
PLAYORDER=
